<svg width="39.000000" height="30.559814" viewBox="0 0 39 30.5598" fill="none" xmlns="http://www.w3.org/2000/svg" xmlns:xlink="http://www.w3.org/1999/xlink">
	<desc>
			Created with Pixso.
	</desc>
	<defs/>
	<path id="Vector" d="M10.73 3.72C13.17 1.33 16.28 0.01 19.5 0C26.05 0 31.49 5.55 32.09 12.72C35.97 13.34 39 17.04 39 21.59C39 26.58 35.34 30.55 30.92 30.55L9.21 30.55C4.16 30.55 0 26.02 0 20.33C0 15.43 3.08 11.37 7.17 10.34C7.51 7.95 8.87 5.56 10.73 3.72ZM12.33 5.83C10.48 7.64 9.52 9.83 9.52 11.54L9.52 12.78L8.43 12.92C5.03 13.34 2.43 16.53 2.43 20.33C2.43 24.4 5.43 27.78 9.21 27.78L30.92 27.78C34.07 27.78 36.56 24.97 36.56 21.59C36.56 18.21 34.07 15.4 30.92 15.4L29.7 15.4L29.7 14.01C29.7 7.84 25.17 2.77 19.5 2.77C16.86 2.79 14.32 3.87 12.33 5.83L12.33 5.83Z" fill="#29A28C" fill-opacity="1.000000" fill-rule="nonzero"/>
</svg>
