<svg width="36.000000" height="28.212158" viewBox="0 0 36 28.2122" fill="none" xmlns="http://www.w3.org/2000/svg" xmlns:xlink="http://www.w3.org/1999/xlink">
	<desc>
			Created with Pixso.
	</desc>
	<defs/>
	<path id="Vector" d="M9.91 3.44C12.16 1.23 15.03 0.01 18 0C24.05 0 29.07 5.12 29.62 11.74C33.2 12.32 36 15.73 36 19.93C36 24.54 32.62 28.21 28.54 28.21L8.5 28.21C3.84 28.21 0 24.02 0 18.76C0 14.24 2.84 10.5 6.61 9.55C6.94 7.34 8.18 5.13 9.91 3.44ZM11.38 5.38C9.67 7.05 8.78 9.07 8.78 10.65L8.78 11.8L7.78 11.93C4.64 12.32 2.25 15.26 2.25 18.76C2.25 22.53 5.01 25.64 8.5 25.64L28.54 25.64C31.45 25.64 33.75 23.05 33.75 19.93C33.75 16.81 31.45 14.22 28.54 14.22L27.42 14.22L27.42 12.93C27.42 7.24 23.23 2.56 18 2.56C15.56 2.57 13.22 3.57 11.38 5.38L11.38 5.38Z" fill="#000000" fill-opacity="1.000000" fill-rule="nonzero"/>
</svg>
