<svg width="39" height="30.56" fill="none" xmlns="http://www.w3.org/2000/svg"><path d="M10.73 3.72C13.17 1.33 16.28.01 19.5 0c6.55 0 11.99 5.55 12.59 12.72 3.88.62 6.91 4.32 6.91 8.87 0 4.99-3.66 8.96-8.08 8.96H9.21C4.16 30.55 0 26.02 0 20.33c0-4.9 3.08-8.96 7.17-9.99.34-2.39 1.7-4.78 3.56-6.62zm1.6 2.11c-1.85 1.81-2.81 4-2.81 5.71v1.24l-1.09.14c-3.4.42-6 3.61-6 7.41 0 4.07 3 7.45 6.78 7.45h21.71c3.15 0 5.64-2.81 5.64-6.19 0-3.38-2.49-6.19-5.64-6.19H29.7v-1.39c0-6.17-4.53-11.24-10.2-11.24-2.64.02-5.18 1.1-7.17 3.06z" fill="#29A28C"/></svg>