<svg width="36" height="28.212" fill="none" xmlns="http://www.w3.org/2000/svg"><path d="M9.91 3.44C12.16 1.23 15.03.01 18 0c6.05 0 11.07 5.12 11.62 11.74 3.58.58 6.38 3.99 6.38 8.19 0 4.61-3.38 8.28-7.46 8.28H8.5c-4.66 0-8.5-4.19-8.5-9.45 0-4.52 2.84-8.26 6.61-9.21.33-2.21 1.57-4.42 3.3-6.11zm1.47 1.94c-1.71 1.67-2.6 3.69-2.6 5.27v1.15l-1 .13c-3.14.39-5.53 3.33-5.53 6.83 0 3.77 2.76 6.88 6.25 6.88h20.04c2.91 0 5.21-2.59 5.21-5.71s-2.3-5.71-5.21-5.71h-1.12v-1.29c0-5.69-4.19-10.37-9.42-10.37-2.44.01-4.78 1.01-6.62 2.82z" fill="#000"/></svg>